<svg version="1.2" xmlns="http://www.w3.org/2000/svg" viewBox="0 0 112 79" width="112" height="79">
	<title>best_services_icon2-svg</title>
	<style>
		.s0 { fill: #fff1da } 
		.s1 { fill: #d5d6db } 
		.s2 { fill: #029bc5 } 
		.s3 { fill: #e1e6e9 } 
		.s4 { fill: #3a556a } 
	</style>
	<path id="Layer" class="s0" d="m22.8 31c0 9.9 8.1 18 18 18h27c2.8 0 5-2.2 5-5v-34c0-5.5-4.5-10-10-10h-35c-2.8 0-5 2.2-5 5z"/>
	<path id="Layer" class="s1" d="m71.4 44.9c-1.4 0.3-2.7 0.9-3.9 1.7-3.1 2-5 4.9-4.1 6.4 0.9 1.5 4.2 1.1 7.3-0.9 1.2-0.8 2.3-1.7 3.2-2.8 0.4-0.6 0.5-1.3 0.2-1.8l-1.2-1.9c-0.3-0.6-0.9-0.8-1.5-0.7z"/>
	<path id="Layer" class="s1" d="m63.5 17.9c-1 0.3-1.9 0.7-2.8 1.2-2.3 1.5-3.6 3.6-3 4.7 0.7 1.1 3 0.8 5.3-0.7 0.9-0.5 1.7-1.2 2.3-2 0.3-0.4 0.4-0.9 0.2-1.3l-0.9-1.4c-0.2-0.4-0.6-0.5-1.1-0.5z"/>
	<path id="Layer" class="s2" d="m50.7 19.1q-0.4-0.1-0.7 0.1l-5.3 3.5c-0.5 0.2-0.6 0.8-0.4 1.2q0.1 0.1 0.2 0.2l13.2 9.1 17.8-11.4z"/>
	<path id="Layer" class="s3" d="m107.1 17.8l-48.6 30.5-28.7 11.5-14.6 2.9-1.6-2.8 80.9-49.9c2.4-1.5 5.1-2.4 7.7-2.7q1.8-0.1 3.5 0.2 1.5 0.2 2.8 0.8c1 0.5 2.8 0.6 3.4 1.5 0 0 1.4 4.4-4.8 8z"/>
	<path id="Layer" class="s2" d="m59.2 44.3l-21 33.5c-0.3 0.4-0.1 1 0.3 1.1 0.3 0.2 0.6 0.1 0.9-0.1l5.4-3.4c1-0.6 1.9-1.4 2.7-2.4l40.7-47.9z"/>
	<path id="Layer" class="s2" d="m6.2 43.2c-0.4-0.1-0.8-0.1-1.1 0.2l-4.4 2.8c-0.6 0.3-0.9 1.1-0.6 1.6q0.1 0.2 0.2 0.3l12.4 9.9 13-8.1z"/>
	<path id="Layer" class="s2" d="m16.9 59.8l-6.7 9.3c-0.1 0.1-0.1 0.3 0.1 0.4q0.1 0.1 0.3 0l4.1-2.7q0.1 0 0.1 0l9.7-11.9z"/>
	<path id="Layer" class="s2" d="m104.9 7.9q-1.7-0.3-3.6-0.2c-1.1 1.7-1.9 3.5-2.1 5.4-0.1 0.4 0.2 0.7 0.6 0.6q0.2 0 0.4-0.1l7.6-4.8q-1.3-0.7-2.9-0.9z"/>
	<path id="Layer" class="s1" d="m88.3 16.8l5-3.2 4.6 7.9-4.9 3.1z"/>
	<path id="Layer" class="s4" d="m85.2 19.9c-0.6 0.4-0.8 1.1-0.5 1.6l0.5 0.8c0.3 0.6 1 0.6 1.6 0.2 0.6-0.3 0.8-1 0.5-1.5l-0.5-0.9c-0.3-0.5-1-0.6-1.6-0.2z"/>
	<path id="Layer" class="s4" d="m80.7 22.7c-0.6 0.3-0.8 1.1-0.5 1.6l0.5 0.8c0.3 0.5 1.1 0.6 1.7 0.2 0.5-0.4 0.7-1 0.5-1.6l-0.5-0.8c-0.3-0.5-1.1-0.6-1.7-0.2z"/>
	<path id="Layer" class="s4" d="m76.3 25.4c-0.6 0.4-0.9 1.1-0.6 1.7l0.5 0.8c0.4 0.5 1.1 0.6 1.7 0.2 0.5-0.4 0.8-1.1 0.5-1.6l-0.5-0.8c-0.3-0.5-1-0.7-1.6-0.3z"/>
	<path id="Layer" class="s4" d="m71.8 28.2c-0.6 0.4-0.8 1.1-0.5 1.6l0.5 0.9c0.3 0.5 1 0.6 1.6 0.2 0.6-0.4 0.8-1.1 0.5-1.6l-0.5-0.8c-0.3-0.6-1-0.7-1.6-0.3z"/>
	<path id="Layer" class="s4" d="m67.3 31c-0.6 0.3-0.8 1.1-0.5 1.6l0.5 0.8c0.3 0.6 1 0.7 1.6 0.3 0.6-0.4 0.9-1.1 0.6-1.6l-0.5-0.9c-0.3-0.5-1.1-0.6-1.7-0.2q0 0 0 0z"/>
	<path id="Layer" class="s4" d="m62.9 33.7c-0.6 0.4-0.9 1.1-0.5 1.7l0.4 0.8c0.3 0.5 1.1 0.6 1.7 0.3 0.6-0.4 0.8-1.1 0.5-1.7l-0.5-0.8c-0.3-0.5-1-0.6-1.6-0.3q0 0 0 0z"/>
	<path id="Layer" class="s4" d="m58.4 36.5c-0.6 0.4-0.8 1.1-0.5 1.6l0.5 0.9c0.3 0.5 1 0.6 1.6 0.2 0.6-0.3 0.8-1.1 0.5-1.6l-0.4-0.8c-0.4-0.6-1.1-0.7-1.7-0.3z"/>
	<path id="Layer" class="s4" d="m54 39.3c-0.6 0.4-0.9 1.1-0.6 1.6l0.5 0.9c0.3 0.5 1.1 0.6 1.6 0.2 0.6-0.4 0.9-1.1 0.6-1.6l-0.5-0.9c-0.3-0.5-1-0.6-1.6-0.2z"/>
	<path id="Layer" class="s4" d="m49.5 42.1c-0.6 0.3-0.8 1.1-0.5 1.6l0.4 0.8c0.4 0.5 1.1 0.7 1.7 0.3 0.6-0.4 0.8-1.1 0.5-1.6l-0.5-0.9c-0.3-0.5-1-0.6-1.6-0.2z"/>
	<path id="Layer" class="s4" d="m45 44.8c-0.6 0.4-0.8 1.1-0.5 1.7l0.5 0.8c0.3 0.5 1 0.6 1.6 0.3 0.6-0.4 0.9-1.2 0.6-1.7l-0.5-0.8c-0.3-0.5-1.1-0.6-1.7-0.3z"/>
	<path id="Layer" class="s4" d="m40.6 47.6c-0.6 0.4-0.9 1.1-0.6 1.6l0.5 0.9c0.3 0.5 1.1 0.6 1.7 0.2 0.6-0.4 0.8-1.1 0.5-1.6l-0.5-0.8c-0.3-0.6-1-0.7-1.6-0.3z"/>
</svg>