<svg width="20" height="20" viewBox="0 0 20 20" fill="none" xmlns="http://www.w3.org/2000/svg">
<path d="M18.0683 2.76032L11.1933 17.7603C11.1357 17.886 11.0382 17.989 10.9159 18.0533C10.7936 18.1176 10.6534 18.1396 10.5173 18.1158C10.3811 18.092 10.2567 18.0237 10.1635 17.9217C10.0703 17.8196 10.0136 17.6896 10.0021 17.5519L9.42089 10.5789L2.44795 9.99769C2.31024 9.98625 2.18019 9.92949 2.07816 9.83629C1.97613 9.74308 1.90787 9.61869 1.88405 9.48257C1.86023 9.34645 1.8822 9.20627 1.94651 9.08395C2.01083 8.96164 2.11387 8.86409 2.23952 8.80657L17.2395 1.93157C17.3555 1.87842 17.4849 1.86203 17.6105 1.8846C17.736 1.90716 17.8516 1.9676 17.9418 2.0578C18.032 2.148 18.0925 2.26363 18.115 2.38918C18.1376 2.51472 18.1212 2.64417 18.0681 2.76013L18.0683 2.76032Z" fill="#080809"/>
</svg>
