<svg width="32" height="26" viewBox="0 0 32 26" fill="none" xmlns="http://www.w3.org/2000/svg">
<g filter="url(#filter0_d_4_378)">
<path d="M24.8184 17.9287C24.3682 17.9379 23.926 17.8091 23.5512 17.5596C23.2723 17.3773 22.9462 17.2802 22.613 17.2802C22.2797 17.2802 21.9537 17.3773 21.6747 17.5596C21.2961 17.8006 20.8566 17.9287 20.4077 17.9287C19.9589 17.9287 19.5194 17.8006 19.1408 17.5596C18.8618 17.3771 18.5357 17.2799 18.2023 17.2799C17.869 17.2799 17.5429 17.3771 17.2639 17.5596C16.8853 17.8006 16.4458 17.9287 15.9969 17.9287C15.5481 17.9287 15.1086 17.8006 14.7299 17.5596C14.4512 17.3772 14.1253 17.2801 13.7922 17.2801C13.459 17.2801 13.1331 17.3772 12.8544 17.5596C12.5111 17.7877 12.1105 17.9145 11.6985 17.9254L11.6758 17.2768C11.9801 17.2695 12.2757 17.1732 12.5258 16.9998C12.9044 16.7588 13.3438 16.6308 13.7925 16.6308C14.2412 16.6308 14.6806 16.7588 15.0591 16.9998C15.3381 17.1821 15.6641 17.2793 15.9974 17.2793C16.3307 17.2793 16.6567 17.1821 16.9357 16.9998C17.3143 16.7586 17.754 16.6304 18.203 16.6304C18.6519 16.6304 19.0916 16.7586 19.4703 16.9998C19.7492 17.1821 20.0753 17.2793 20.4085 17.2793C20.7418 17.2793 21.0679 17.1821 21.3468 16.9998C21.7255 16.7588 22.165 16.6308 22.6138 16.6308C23.0626 16.6308 23.5021 16.7588 23.8808 16.9998C24.1604 17.1826 24.4872 17.2799 24.8213 17.2799C25.1554 17.2799 25.4822 17.1826 25.7618 16.9998C26.1362 16.751 26.5776 16.6225 27.027 16.6314V17.28C26.6924 17.2708 26.3636 17.3687 26.0884 17.5592C25.7127 17.8091 25.2695 17.938 24.8184 17.9287Z" fill="white"/>
<path d="M7.17837 17.9287C6.7283 17.938 6.28619 17.8092 5.91156 17.5596C5.63643 17.3689 5.30761 17.2709 4.97296 17.28V16.6314C5.42313 16.622 5.86536 16.7508 6.2401 17.0005C6.51507 17.1913 6.84381 17.2892 7.17837 17.28C7.51307 17.2892 7.84195 17.1911 8.11696 17.0001C8.4909 16.7507 8.9324 16.6219 9.38182 16.6314C9.82036 16.6215 10.2516 16.7444 10.6191 16.9839L10.2919 17.5437C10.0234 17.3631 9.70525 17.2709 9.38182 17.28C9.0485 17.271 8.72102 17.3688 8.44712 17.5589C8.07206 17.8092 7.62917 17.9383 7.17837 17.9287Z" fill="white"/>
<path d="M24.8193 15.6581C24.3689 15.6673 23.9264 15.5385 23.5512 15.289C23.272 15.1065 22.9457 15.0094 22.6122 15.0094C22.2786 15.0094 21.9523 15.1065 21.6731 15.289C21.2945 15.53 20.855 15.658 20.4063 15.658C19.9575 15.658 19.518 15.53 19.1395 15.289C18.8606 15.1067 18.5347 15.0095 18.2015 15.0095C17.8683 15.0095 17.5424 15.1067 17.2636 15.289C16.885 15.5301 16.4455 15.6581 15.9967 15.6581C15.548 15.6581 15.1085 15.5301 14.7299 15.289C14.4511 15.1067 14.1252 15.0095 13.792 15.0095C13.4588 15.0095 13.1329 15.1067 12.854 15.289C12.4794 15.5386 12.0373 15.6674 11.5872 15.6581C11.1372 15.6674 10.695 15.5386 10.3204 15.289C10.0455 15.0983 9.71693 15.0003 9.38248 15.0094C9.04813 15.0004 8.71963 15.0983 8.44485 15.289C8.07083 15.5383 7.62941 15.6671 7.17999 15.6581C6.72982 15.6674 6.28759 15.5386 5.91285 15.289C5.63743 15.0979 5.30807 14.9999 4.97296 15.0094V14.3608C5.42302 14.3515 5.86513 14.4803 6.23977 14.7299C6.5149 14.9206 6.84372 15.0185 7.17837 15.0094C7.51271 15.0185 7.84121 14.9206 8.11599 14.7299C8.49002 14.4805 8.93143 14.3517 9.38085 14.3608C9.83125 14.3512 10.2738 14.48 10.6486 14.7299C10.9236 14.9207 11.2524 15.0186 11.5869 15.0094C11.9215 15.0186 12.2502 14.9207 12.5252 14.7299C12.9037 14.4888 13.3432 14.3607 13.792 14.3607C14.2408 14.3607 14.6803 14.4888 15.0588 14.7299C15.3377 14.9122 15.6637 15.0094 15.9969 15.0094C16.3301 15.0094 16.6561 14.9122 16.935 14.7299C17.3136 14.4888 17.753 14.3607 18.2018 14.3607C18.6506 14.3607 19.0901 14.4888 19.4686 14.7299C19.7475 14.9122 20.0735 15.0094 20.4067 15.0094C20.74 15.0094 21.066 14.9122 21.3449 14.7299C21.7238 14.4889 22.1636 14.3609 22.6126 14.3609C23.0617 14.3609 23.5015 14.4889 23.8804 14.7299C24.1598 14.9122 24.4862 15.0093 24.8198 15.0093C25.1534 15.0093 25.4798 14.9122 25.7592 14.7299C26.1343 14.4804 26.5767 14.3517 27.027 14.3608V15.0094C26.6917 15 26.3622 15.0979 26.0865 15.289C25.7116 15.5383 25.2695 15.6671 24.8193 15.6581Z" fill="white"/>
<path d="M24.8184 13.3882C24.3682 13.3974 23.926 13.2686 23.5512 13.0191C23.2761 12.8283 22.9473 12.7304 22.6126 12.7395C22.367 12.7311 22.1232 12.7834 21.9027 12.8919L21.6166 12.3082C21.9263 12.1564 22.2679 12.0815 22.6126 12.0899C23.0633 12.0807 23.506 12.2099 23.8811 12.4599C24.1607 12.6427 24.4875 12.7401 24.8216 12.7401C25.1557 12.7401 25.4825 12.6427 25.7622 12.4599C26.1364 12.211 26.5777 12.0823 27.027 12.0909V12.7395C26.6924 12.7304 26.3636 12.8282 26.0884 13.0188C25.7127 13.2686 25.2695 13.3975 24.8184 13.3882Z" fill="white"/>
<path d="M20.4043 13.3881C19.9549 13.3975 19.5134 13.2688 19.1394 13.0193C18.8605 12.8369 18.5344 12.7397 18.201 12.7397C17.8677 12.7397 17.5416 12.8369 17.2626 13.0193C16.884 13.2604 16.4444 13.3884 15.9956 13.3884C15.5468 13.3884 15.1073 13.2604 14.7286 13.0193C14.4497 12.837 14.1236 12.7398 13.7904 12.7398C13.4571 12.7398 13.131 12.837 12.8521 13.0193C12.4775 13.2685 12.0357 13.3972 11.5859 13.3881C11.1359 13.3974 10.6938 13.2686 10.3191 13.019C10.044 12.8283 9.71518 12.7303 9.38053 12.7394C9.0472 12.7304 8.71972 12.8282 8.44583 13.0184C8.07112 13.2684 7.62873 13.3974 7.17837 13.3881C6.7283 13.3974 6.28619 13.2686 5.91156 13.019C5.63643 12.8283 5.30761 12.7303 4.97296 12.7394V12.0908C5.42313 12.0814 5.86536 12.2102 6.2401 12.4599C6.51507 12.6507 6.84381 12.7486 7.17837 12.7394C7.51308 12.7486 7.84196 12.6506 8.11696 12.4595C8.4909 12.2101 8.9324 12.0813 9.38183 12.0908C9.83189 12.0815 10.274 12.2103 10.6486 12.4599C10.9236 12.6507 11.2524 12.7486 11.5869 12.7394C11.9216 12.7485 12.2504 12.6506 12.5255 12.4599C12.9041 12.2188 13.3436 12.0908 13.7925 12.0908C14.2413 12.0908 14.6808 12.2188 15.0594 12.4599C15.3384 12.6422 15.6644 12.7393 15.9977 12.7393C16.331 12.7393 16.657 12.6422 16.936 12.4599C17.3147 12.2187 17.7543 12.0905 18.2033 12.0905C18.6523 12.0905 19.0919 12.2187 19.4706 12.4599C19.7563 12.6521 20.0952 12.7497 20.4393 12.7391C20.4644 12.7394 20.4894 12.7381 20.5143 12.7352L20.6005 13.378C20.5354 13.3856 20.4699 13.389 20.4043 13.3881Z" fill="white"/>
<path d="M24.8193 11.1175C24.3689 11.1267 23.9264 10.9979 23.5512 10.7484C23.272 10.566 22.9457 10.4688 22.6122 10.4688C22.2786 10.4688 21.9523 10.566 21.6731 10.7484C21.2945 10.9894 20.855 11.1174 20.4063 11.1174C19.9575 11.1174 19.518 10.9894 19.1395 10.7484C18.8606 10.5661 18.5347 10.469 18.2015 10.469C17.8683 10.469 17.5424 10.5661 17.2636 10.7484C16.885 10.9895 16.4455 11.1175 15.9967 11.1175C15.548 11.1175 15.1085 10.9895 14.7299 10.7484C14.4511 10.5661 14.1252 10.469 13.792 10.469C13.4588 10.469 13.1329 10.5661 12.854 10.7484C12.4794 10.998 12.0373 11.1268 11.5872 11.1175C11.1372 11.1268 10.695 10.998 10.3204 10.7484C10.0455 10.5577 9.71693 10.4597 9.38248 10.4688C9.04813 10.4598 8.71963 10.5577 8.44485 10.7484C8.07083 10.9977 7.62941 11.1265 7.17999 11.1175C6.72982 11.1268 6.28759 10.998 5.91285 10.7484C5.63743 10.5573 5.30807 10.4593 4.97296 10.4688V9.8202C5.42302 9.8109 5.86513 9.9397 6.23977 10.1893C6.5149 10.38 6.84372 10.478 7.17837 10.4688C7.51271 10.4779 7.84121 10.38 8.11599 10.1893C8.49002 9.93995 8.93143 9.81115 9.38085 9.8202C9.83125 9.81063 10.2738 9.93945 10.6486 10.1893C10.9236 10.3801 11.2524 10.478 11.5869 10.4688C11.9215 10.478 12.2502 10.3801 12.5252 10.1893C12.9037 9.94819 13.3432 9.82012 13.792 9.82012C14.2408 9.82012 14.6803 9.94819 15.0588 10.1893C15.3377 10.3717 15.6637 10.4688 15.9969 10.4688C16.3301 10.4688 16.6561 10.3717 16.935 10.1893C17.3136 9.94819 17.753 9.82012 18.2018 9.82012C18.6506 9.82012 19.0901 9.94819 19.4686 10.1893C19.7475 10.3717 20.0735 10.4688 20.4067 10.4688C20.74 10.4688 21.066 10.3717 21.3449 10.1893C21.7238 9.94828 22.1636 9.82028 22.6126 9.82028C23.0617 9.82028 23.5015 9.94828 23.8804 10.1893C24.1598 10.3716 24.4862 10.4687 24.8198 10.4687C25.1534 10.4687 25.4798 10.3716 25.7592 10.1893C26.1343 9.93985 26.5767 9.81107 27.027 9.8202V10.4688C26.6917 10.4594 26.3622 10.5573 26.0865 10.7484C25.7116 10.9977 25.2695 11.1265 24.8193 11.1175Z" fill="white"/>
<path d="M20.1977 10.8425L19.5857 10.6278C19.7434 10.1749 19.8077 9.69484 19.775 9.21646C19.7423 8.73808 19.6132 8.27125 19.3954 7.84408L17.1676 3.48159C17.1456 3.43851 17.1335 3.39106 17.1322 3.3427C17.1309 3.29435 17.1405 3.24632 17.1602 3.20213C17.1798 3.15795 17.2092 3.11873 17.246 3.08734C17.2828 3.05595 17.3261 3.03319 17.3729 3.02073L21.8125 1.83695C21.9572 1.79911 22.0811 1.70567 22.1572 1.57696C22.2334 1.44825 22.2556 1.29468 22.2191 1.14967C22.1826 1.00465 22.0903 0.879915 21.9623 0.802603C21.8343 0.725291 21.6809 0.701655 21.5356 0.736838L16.1622 2.02116C16.0473 2.04831 15.9402 2.10153 15.8492 2.17671C15.7582 2.25189 15.6858 2.34701 15.6374 2.45469C15.5891 2.56238 15.5662 2.67975 15.5705 2.7977C15.5749 2.91566 15.6063 3.03103 15.6624 3.13489L17.2581 6.09921C17.2985 6.17456 17.3076 6.26283 17.2833 6.34483C17.259 6.42684 17.2033 6.49592 17.1283 6.53705L15.0689 7.67219L14.7559 7.10397L16.5338 6.12386L15.0919 3.44235C14.9887 3.25092 14.931 3.03834 14.9231 2.82103C14.9153 2.60372 14.9575 2.38752 15.0465 2.18913C15.1355 1.99074 15.269 1.81549 15.4366 1.67693C15.6042 1.53836 15.8014 1.4402 16.013 1.39003L21.3838 0.106027C21.6965 0.0270211 22.0277 0.0754585 22.3047 0.240683C22.5816 0.405908 22.7816 0.674385 22.8606 0.987054C22.9396 1.29972 22.8912 1.63097 22.7259 1.90793C22.5607 2.18488 22.2922 2.38486 21.9796 2.46386L17.9275 3.54386L19.9733 7.54862C20.2309 8.05414 20.3836 8.60654 20.4222 9.1726C20.4607 9.73866 20.3844 10.3067 20.1977 10.8425Z" fill="white"/>
<path d="M13.6223 7.7339L9.68103 9.90564L9.99392 10.4735L13.9352 8.30172L13.6223 7.7339Z" fill="white"/>
<path d="M23.1351 8.68508C22.654 8.68508 22.1838 8.54242 21.7837 8.27515C21.3837 8.00787 21.072 7.62797 20.8879 7.1835C20.7038 6.73904 20.6556 6.24995 20.7494 5.77811C20.8433 5.30626 21.075 4.87285 21.4151 4.53266C21.7553 4.19248 22.1887 3.96082 22.6606 3.86696C23.1324 3.7731 23.6215 3.82127 24.066 4.00538C24.5104 4.18948 24.8903 4.50126 25.1576 4.90127C25.4249 5.30128 25.5676 5.77156 25.5676 6.25265C25.5669 6.89756 25.3104 7.51586 24.8544 7.97188C24.3983 8.4279 23.78 8.6844 23.1351 8.68508ZM23.1351 4.46887C22.7823 4.46887 22.4375 4.57349 22.1441 4.76949C21.8508 4.9655 21.6221 5.24409 21.4871 5.57003C21.3521 5.89597 21.3168 6.25463 21.3856 6.60065C21.4544 6.94667 21.6243 7.26451 21.8738 7.51398C22.1233 7.76344 22.4411 7.93333 22.7871 8.00216C23.1331 8.07099 23.4918 8.03566 23.8178 7.90065C24.1437 7.76564 24.4223 7.53701 24.6183 7.24367C24.8143 6.95033 24.9189 6.60545 24.9189 6.25265C24.9183 5.77975 24.7302 5.32639 24.3958 4.99199C24.0614 4.6576 23.608 4.46947 23.1351 4.46887Z" fill="white"/>
</g>
<defs>
<filter id="filter0_d_4_378" x="0.972961" y="0.0689697" width="30.0541" height="25.8602" filterUnits="userSpaceOnUse" color-interpolation-filters="sRGB">
<feFlood flood-opacity="0" result="BackgroundImageFix"/>
<feColorMatrix in="SourceAlpha" type="matrix" values="0 0 0 0 0 0 0 0 0 0 0 0 0 0 0 0 0 0 127 0" result="hardAlpha"/>
<feOffset dy="4"/>
<feGaussianBlur stdDeviation="2"/>
<feComposite in2="hardAlpha" operator="out"/>
<feColorMatrix type="matrix" values="0 0 0 0 0 0 0 0 0 0 0 0 0 0 0 0 0 0 0.25 0"/>
<feBlend mode="normal" in2="BackgroundImageFix" result="effect1_dropShadow_4_378"/>
<feBlend mode="normal" in="SourceGraphic" in2="effect1_dropShadow_4_378" result="shape"/>
</filter>
</defs>
</svg>
